<svg xmlns="http://www.w3.org/2000/svg" width="5000" height="5000" enable-background="new 0 0 5000 5000" viewBox="0 0 5000 5000"><path fill="#ff7373" d="M3180.45,3345.3l-204.944,194.002c-16.93,16.028-43.705,15.32-59.797-1.608l-9.978-10.556
		c-16.027-16.93-15.255-43.771,1.673-59.798l204.946-194.003l-51.493-54.455l-205.011,194.068
		c-46.924,44.413-48.919,118.757-4.506,165.745l9.978,10.491c27.678,29.159,66.877,41.003,103.824,35.081
		c5.985-16.221,15.705-31.282,29.094-43.963l215.566-204.045L3180.45,3345.3z M3180.45,3345.3l-204.944,194.002
		c-16.93,16.028-43.705,15.32-59.797-1.608l-9.978-10.556c-16.027-16.93-15.255-43.771,1.673-59.798l204.946-194.003l-51.493-54.455
		l-205.011,194.068c-46.924,44.413-48.919,118.757-4.506,165.745l9.978,10.491c27.678,29.159,66.877,41.003,103.824,35.081
		c5.985-16.221,15.705-31.282,29.094-43.963l215.566-204.045L3180.45,3345.3z M3640.612,3447.965l-68.293-72.155l-10.622,10.041
		l107.237,113.222C3664.172,3480.471,3654.71,3462.834,3640.612,3447.965z M3671.315,2822.251l-9.978-10.556
		c-21.498-22.658-50.592-35.596-81.939-36.433c-31.475-0.965-61.148,10.492-83.807,31.926l-243.436,230.5l-217.304-229.47
		c-12.938-13.646-28.644-23.816-45.959-29.802c-5.729,4.055-11.329,8.239-16.929,12.551
		c-55.42,42.612-103.374,92.239-143.088,147.402c5.342,15.125,13.902,29.029,25.231,41.001l110.134,116.313
		c-2.77-10.557-4.057-21.5-3.734-32.699c0.645-21.82,7.081-42.61,18.666-60.44l-70.676-74.667
		c-7.723-8.109-11.777-18.859-11.455-30.252c0.32-11.328,4.954-21.82,13.064-29.545l10.558-9.977
		c8.175-7.66,18.795-11.779,30.252-11.457c11.329,0.321,21.82,4.956,29.546,13.131l78.527,82.904
		c10.427-2.702,21.305-3.926,32.377-3.604c31.346,0.902,60.439,13.84,81.875,36.497l119.851,126.546l254.06-240.54
		c8.109-7.66,18.859-11.715,30.188-11.458c11.394,0.321,21.885,4.956,29.544,13.13l9.978,10.493
		c16.092,16.992,15.319,43.771-1.609,59.798l-253.993,240.539l29.287,30.961l243.437-230.499
		c17.315-16.413,38.749-26.97,61.986-30.575C3711.094,2903.354,3703.048,2855.786,3671.315,2822.251z M4022.053,3022.434
		c-18.666-35.596-40.551-69.774-65.525-102.345c-27.743-36.174-58.382-68.872-91.337-98.031
		c80.395,134.85,113.027,291.648,92.303,449.67c-17.896,136.974-74.408,262.747-162.335,365.155
		c17.959,30.703,20.661,67.715,8.432,100.22c-5.985,16.221-15.705,31.283-29.094,43.899l-10.556,9.977
		c-17.829,16.928-39.974,27.549-63.916,30.896h-0.065c-5.406,0.772-10.942,1.158-16.478,1.158c-1.095,0-2.188-0.064-3.282-0.064
		c-28.259-0.771-54.713-11.393-75.312-30.123c-147.207,82.775-315.462,107.171-474.064,77.24
		c-122.169-23.043-238.546-78.336-335.097-164.071c14.226,23.944,29.996,47.18,47.182,69.58c7.21,9.397,14.611,18.538,22.271,27.484
		c30.059,35.274,62.887,66.878,98.031,94.813c90.437,71.77,195.871,118.758,306.002,139.549
		c189.755,35.788,393.414-6.18,558.258-132.79c148.688-114.253,244.08-279.547,268.412-465.569
		C4114.936,3293.806,4088.867,3149.494,4022.053,3022.434z M3640.612,3447.965l-68.293-72.155l-10.622,10.041l107.237,113.222
		C3664.172,3480.471,3654.71,3462.834,3640.612,3447.965z M2861.318,3589.187c27.678,29.159,66.877,41.003,103.824,35.081
		c5.985-16.221,15.705-31.282,29.094-43.963l215.566-204.045l-29.353-30.96l-204.944,194.002
		c-16.93,16.028-43.705,15.32-59.797-1.608l-9.978-10.556c-16.027-16.93-15.255-43.771,1.673-59.798l204.946-194.003l-51.493-54.455
		l-205.011,194.068c-46.924,44.413-48.919,118.757-4.506,165.745L2861.318,3589.187z M3180.45,3345.3l-204.944,194.002
		c-16.93,16.028-43.705,15.32-59.797-1.608l-9.978-10.556c-16.027-16.93-15.255-43.771,1.673-59.798l204.946-194.003l-51.493-54.455
		l-205.011,194.068c-46.924,44.413-48.919,118.757-4.506,165.745l9.978,10.491c27.678,29.159,66.877,41.003,103.824,35.081
		c5.985-16.221,15.705-31.282,29.094-43.963l215.566-204.045L3180.45,3345.3z"/><path fill="#c4c4c4" d="M1851.777,1564.968c19.398-21.497,30.237-50.352,30.526-81.26l3.571-382.809l-491.423,491.423
		l390.86,3.646C1809.86,1596.427,1833.523,1585.186,1851.777,1564.968z"/><path fill="#c4c4c4" d="M3127.605 972.142v122.298H2059.366c-9.913 0-19.439 3.926-26.455 11.007l-567.655 567.655c-7.273 7.209-11.265 17.185-11.007 27.42l9.333 361.101v1323.004h-135.171v-47.373h-144.633V823.711c0-14.097 11.458-25.489 25.489-25.489h1858.092v173.92H3127.605zM4137.078 2676.459c-93.72-116.183-211.383-206.619-344.301-266.352-82.584-37.011-171.089-62.179-263.393-74.28-248.328-32.57-494.532 33.535-693.171 186.086-25.554 19.632-49.948 40.422-73.12 62.308-131.824 124.101-223.676 282.122-266.481 457.908-2.188 12.359-4.119 24.782-5.792 37.334-26.969 205.781 27.806 409.762 154.289 574.413 83.806 109.103 191.105 189.819 309.414 240.412-59.733-43.062-114.253-95.393-161.369-156.734-24.974-32.506-47.118-66.556-66.363-101.829-7.659-8.947-15.061-18.088-22.271-27.484-114.252-148.753-163.75-333.101-139.42-519.059 24.395-185.957 119.723-351.316 268.477-465.568 63.658-48.854 133.046-85.094 205.201-109.167 72.158-24.009 147.08-35.853 221.745-35.853 37.978 0 75.827 3.09 113.223 9.141 45.187-2.06 90.888-.064 136.652 5.922 71.577 9.332 140.385 28.257 205.075 55.87 121.203 51.687 227.666 133.948 310.12 241.249 129.572 168.643 179.07 374.038 154.417 570.036-24.009 191.364-118.563 373.782-278.131 504.383-.063 0-.063 0-.063.064-22.593 21.112-46.28 41.259-71.127 60.312-198.636 152.615-444.776 218.656-693.171 186.15-92.367-12.102-180.936-37.333-263.584-74.473 119.531 82.904 257.663 137.038 405.772 157.313 215.179-3.798 422.828-76.019 596.62-209.58 214.535-164.78 352.023-403.196 387.232-671.415C4292.846 3090.083 4248.176 2868.273 4137.078 2676.459z"/><path fill="#99c7ff" d="M2828.232,4096.723l-1.545,1.224c-27.162-12.81-53.681-26.776-79.494-41.903l-172.824,132.726
		l-45.638-59.411l-247.814-322.674c-7.917-10.298-11.329-23.172-9.655-36.238c0.129-0.708,0.258-1.416,0.386-2.124
		c3.025-4.698,5.021-10.106,5.665-15.963c3.154-5.536,7.402-10.429,12.616-14.418l83.999-64.561l60.055-46.151
		c23.623,43.705,50.915,85.801,81.811,125.966c4.699,6.051,9.397,12.103,14.161,18.023l0.064,0.064
		c22.143,38.362,46.987,75.503,74.408,111.227C2668.666,3966.122,2744.17,4038.02,2828.232,4096.723z"/><path fill="#c4c4c4" d="M2642.439 1682.415c41.184 0 74.69-33.506 74.69-74.69 0-41.184-33.507-74.69-74.69-74.69-41.185 0-74.691 33.506-74.691 74.69C2567.748 1648.909 2601.255 1682.415 2642.439 1682.415zM2269.157 1682.415c41.184 0 74.69-33.506 74.69-74.69 0-41.184-33.506-74.69-74.69-74.69-41.189 0-74.696 33.506-74.696 74.69C2194.461 1648.909 2227.967 1682.415 2269.157 1682.415z"/><path fill="#99c7ff" d="M2460.052,4162.893l-48.018,38.299c-9.333-6.759-17.83-14.998-25.232-24.588l-29.158-37.978
		l-70.483,56.257l-353.054,277.488c-30.832,24.201-64.625,41.388-98.933,51.494c-9.848-6.244-18.602-14.033-25.875-23.302
		c-9.849-12.552-16.607-27.163-20.147-43.19c-4.249-18.924-3.863-39.908,1.223-61.729c10.042-43.254,36.946-83.87,75.825-114.381
		l352.411-276.972l22.851-16.929l53.361-39.586L2460.052,4162.893z"/><path fill="#fff" d="M3356.733,1047.065h-326.729c-0.064,0-0.129,0-0.129,0c-0.064,0-0.064,0-0.129,0H1961.314
		l-1.223,131.181l-2.896,306.194c-0.451,49.177-18.152,95.65-49.822,130.73c-32.441,35.98-75.438,55.742-121.267,55.742h-1.48
		l-314.242-2.961l-74.087-0.708l7.017,270.665V3620.79c0,3.413,2.832,6.245,6.244,6.245h657.317
		c7.595-12.038,17.379-23.045,29.352-32.184l186.601-143.347c-35.596-128.863-45.38-264.743-27.485-401.267
		c35.209-268.153,172.698-506.634,387.169-671.415c213.378-163.879,471.877-229.404,720.464-203.786V1053.308
		C3362.977,1049.896,3360.145,1047.065,3356.733,1047.065z M2642.449,1458.115c82.518,0,149.59,67.134,149.59,149.588
		c0,82.519-67.072,149.654-149.59,149.654c-82.52,0-149.653-67.135-149.653-149.654
		C2492.796,1525.25,2559.93,1458.115,2642.449,1458.115z M2269.182,1458.115c82.455,0,149.591,67.134,149.591,149.588
		c0,82.519-67.137,149.654-149.591,149.654c-82.518,0-149.654-67.135-149.654-149.654
		C2119.528,1525.25,2186.665,1458.115,2269.182,1458.115z M3029.876,1757.357c-82.52,0-149.59-67.135-149.59-149.654
		c0-82.454,67.07-149.588,149.59-149.588c82.518,0,149.589,67.134,149.589,149.588
		C3179.465,1690.222,3112.394,1757.357,3029.876,1757.357z"/><path fill="#c4c4c4" d="M3029.876,1682.415c41.184,0,74.69-33.506,74.69-74.69c0-41.184-33.507-74.69-74.69-74.69
		c-41.189,0-74.696,33.506-74.696,74.69C2955.18,1648.909,2988.687,1682.415,3029.876,1682.415z"/><path fill="#23327a" d="M4137.078,2676.459c-22.143-38.428-47.053-75.631-74.538-111.419
		c-159.696-207.907-384.853-336.642-624.62-379.446V1053.309c0-44.735-36.432-81.167-81.167-81.167h-289.395V701.414
		c0-55.356-45.058-100.414-100.414-100.414H1074.096c-55.355,0-100.412,45.057-100.412,100.414V3236.84
		c0,55.357,45.057,100.414,100.412,100.414h254.315v283.537c0,44.801,36.369,81.167,81.168,81.167h638.587
		c1.609,23.431,9.913,46.667,25.296,66.686l27.678,36.045l-75.631,56.064c-0.322,0.192-0.579,0.45-0.837,0.644l-352.797,277.294
		c-52.202,41.002-88.634,96.552-102.537,156.349c-14.611,62.758-2.897,122.49,33.021,168.191
		c37.462,47.696,95.521,71.77,158.215,71.77c24.459,0,49.691-3.669,74.601-11.135c34.308-10.106,68.101-27.293,98.933-51.494
		l353.054-277.488l70.483-56.257l29.158,37.978c7.402,9.59,15.899,17.829,25.232,24.588c21.499,15.705,47.246,23.815,73.185,23.815
		c26.391-0.063,52.911-8.368,75.375-25.618l13.775-10.62l172.824-132.726c25.813,15.127,52.332,29.094,79.494,41.903
		c93.913,44.284,195.162,74.151,301.111,88.054c44.734,5.858,89.405,8.754,133.755,8.754c6.051,0,12.101-0.063,18.152-0.192
		c215.179-3.798,422.828-76.019,596.62-209.58c214.535-164.78,352.023-403.196,387.232-671.415
		C4292.846,3090.083,4248.176,2868.273,4137.078,2676.459z M1074.096,3262.33c-14.032,0-25.489-11.457-25.489-25.49V701.414
		c0-14.097,11.457-25.489,25.489-25.489h1892.849c14.032,0,25.489,11.393,25.489,25.489v270.729H1924.194
		c-9.913,0-19.439,3.926-26.455,11.007l-567.656,567.655c-7.272,7.209-11.264,17.186-11.006,27.42l9.333,361.1V3262.33H1074.096z
		 M1884.48,1253.878l-2.189,229.856c0,1.931-0.064,3.861-0.193,5.792c-0.129,3.347-0.45,6.565-0.836,9.784
		c-0.193,1.416-0.387,2.768-0.58,4.12c-0.064,0.128-0.064,0.257-0.129,0.45c-0.193,1.545-0.515,3.09-0.836,4.634
		c-0.515,2.382-1.031,4.828-1.673,7.146c-0.258,1.158-0.645,2.381-0.967,3.54c-0.321,1.159-0.707,2.317-1.029,3.477
		c-0.644,1.995-1.352,3.99-2.125,5.922c-0.515,1.416-1.029,2.768-1.673,4.119c-1.545,3.669-3.283,7.274-5.214,10.75
		c-0.515,1.03-1.094,1.995-1.738,2.962c-0.321,0.514-0.644,1.094-0.966,1.609c-0.771,1.416-1.673,2.768-2.574,4.119
		c-1.996,2.961-4.121,5.922-6.437,8.69c-1.159,1.416-2.318,2.768-3.541,4.119c-18.216,20.211-41.903,31.476-66.427,31.026
		l-240.733-2.254l-150.169-1.416l491.445-491.444L1884.48,1253.878z M2096.248,3594.852c-11.972,9.14-21.756,20.146-29.352,32.184
		h-657.318c-1.738,0-3.218-0.708-4.377-1.866c-0.579-0.516-1.03-1.223-1.353-1.932c-0.321-0.772-0.514-1.609-0.514-2.446V1937.909
		l-7.017-270.665l74.087,0.708l314.241,2.961h1.48c45.829,0,88.827-19.761,121.268-55.742c31.668-35.08,49.37-81.553,49.82-130.73
		l2.897-306.195l1.222-131.181h1068.433c0.064,0,0.064,0,0.129,0c0,0,0.063,0,0.129,0h326.728c3.412,0,6.243,2.832,6.243,6.244
		v1121.729c-248.587-25.618-507.085,39.907-720.463,203.787c-214.472,164.78-351.96,403.261-387.169,671.414
		c-17.895,136.522-8.11,272.403,27.484,401.267L2096.248,3594.852z M2240.624,4136.18l-352.796,277.295
		c-30.381,23.945-65.075,38.556-98.675,43.898c-51.301,8.303-100.156-5.149-127.898-40.486
		c-21.563-27.421-28.322-64.689-18.924-104.92c10.042-43.254,36.947-83.87,75.825-114.38l352.411-276.973l76.212-56.515
		l94.684,123.264l70.546,91.852L2240.624,4136.18z M2528.731,4129.357l-13.774,10.621c-21.434,16.478-52.267,12.422-68.744-9.012
		l-313.34-407.96c-7.917-10.299-11.329-23.173-9.655-36.239c0.129-0.708,0.258-1.416,0.387-2.124
		c3.025-4.698,5.021-10.105,5.664-15.963c3.154-5.536,7.402-10.428,12.617-14.418l165.166-126.933
		c18.281,50.143,40.552,98.997,66.878,146.05c24.073,43.447,51.623,85.351,82.454,125.451
		c64.238,83.613,139.742,155.512,223.805,214.214L2528.731,4129.357z M4189.216,3303.847c-2.511,19.183-5.601,38.171-9.206,56.965
		c-37.526,194.519-134.206,369.533-278.131,504.383c-0.063,0-0.063,0-0.063,0.064c-22.593,21.112-46.28,41.259-71.127,60.312
		c-198.636,152.615-444.776,218.656-693.171,186.15c-92.367-12.102-180.936-37.333-263.584-74.473
		c-132.79-59.668-250.26-149.912-343.914-265.966l-0.064-0.064c-4.764-5.921-9.462-11.973-14.161-18.023
		c-30.896-40.165-58.188-82.261-81.811-125.966c-93.526-172.311-130.344-369.082-104.339-567.205
		c32.57-248.393,159.889-469.172,358.526-621.788c198.638-152.551,444.843-218.656,693.17-186.086
		c150.234,19.633,290.362,74.022,411.438,157.958c79.107,54.712,150.039,122.104,210.352,200.567
		C4155.68,2809.313,4221.784,3055.453,4189.216,3303.847z"/><path fill="#fff" d="M2241.461 3987.363l-22.851 16.929L1866.2 4281.264c-38.878 30.511-65.783 71.127-75.825 114.381-5.085 21.82-5.471 42.805-1.223 61.729-51.301 8.303-100.156-5.149-127.898-40.486-21.563-27.421-28.322-64.689-18.924-104.92 10.042-43.254 36.947-83.87 75.825-114.38l352.411-276.973 76.212-56.515L2241.461 3987.363zM2528.731 4129.357l-13.774 10.621c-21.434 16.478-52.267 12.422-68.744-9.012l-313.34-407.96c-7.917-10.299-11.329-23.173-9.655-36.239.129-.708.258-1.416.387-2.124 3.025-4.698 5.021-10.105 5.664-15.963 3.154-5.536 7.402-10.428 12.617-14.418l165.166-126.933c18.281 50.143 40.552 98.997 66.878 146.05l-83.999 64.561c-5.214 3.989-9.462 8.882-12.616 14.418-.644 5.856-2.64 11.265-5.665 15.963-.128.708-.257 1.416-.386 2.124-1.674 13.066 1.738 25.94 9.655 36.238L2528.731 4129.357zM3792.777 2410.107c-82.584-37.011-171.089-62.179-263.393-74.28-248.328-32.57-494.532 33.535-693.171 186.086-25.554 19.632-49.948 40.422-73.12 62.308-140.707 117.213-234.04 277.809-266.481 457.908-8.11 33.278-14.418 67.136-18.924 101.572-32.57 248.329 33.535 494.534 186.149 693.171 60.249 78.399 131.117 145.728 210.096 200.376-132.79-59.668-250.26-149.912-343.914-265.966l-.064-.064c-4.764-5.921-9.462-11.973-14.161-18.023-30.896-40.165-58.188-82.261-81.811-125.966-93.526-172.311-130.344-369.082-104.339-567.205 32.57-248.393 159.889-469.172 358.526-621.788 198.638-152.551 444.843-218.656 693.17-186.086C3531.574 2271.782 3671.702 2326.172 3792.777 2410.107zM2992.434 701.414v96.809H1209.267c-14.031 0-25.489 11.393-25.489 25.489V3262.33h-109.682c-14.032 0-25.489-11.457-25.489-25.49V701.414c0-14.097 11.457-25.489 25.489-25.489h1892.849C2980.977 675.924 2992.434 687.317 2992.434 701.414z"/><path fill="#c4c4c4" d="M4180.01,3360.812c-37.526,194.519-134.206,369.533-278.131,504.383c-0.063,0-0.063,0-0.063,0.064
		c-22.593,21.112-46.28,41.259-71.127,60.312c-198.636,152.615-444.776,218.656-693.171,186.15
		c-92.367-12.102-180.936-37.333-263.584-74.473c-78.979-54.648-149.847-121.977-210.096-200.376
		c-152.614-198.637-218.719-444.842-186.149-693.171c4.506-34.437,10.813-68.294,18.924-101.572
		c-2.188,12.359-4.119,24.782-5.792,37.334c-26.969,205.781,27.806,409.762,154.289,574.413
		c83.806,109.103,191.105,189.819,309.414,240.412c2.896,1.224,5.792,2.446,8.688,3.604c1.932,0.837,3.862,1.609,5.794,2.382
		c0.257,0.128,0.514,0.192,0.771,0.321c2.06,0.837,4.12,1.674,6.179,2.446c0.387,0.193,0.838,0.386,1.225,0.515
		c0.578,0.193,1.094,0.451,1.674,0.645c2.639,1.029,5.276,2.06,7.916,3.024c0.259,0.129,0.579,0.193,0.837,0.322
		c0.258,0.128,0.579,0.192,0.837,0.321c2.703,0.966,5.277,1.996,7.982,2.896c1.866,0.709,3.731,1.416,5.599,1.996
		c0.129,0.064,0.193,0.064,0.322,0.128c1.609,0.516,3.153,1.095,4.763,1.674s3.219,1.095,4.764,1.609
		c0.965,0.321,1.867,0.644,2.832,0.966c3.282,1.094,6.564,2.188,9.848,3.154c1.096,0.386,2.125,0.707,3.219,1.029
		c1.48,0.515,2.961,0.966,4.442,1.416c0.578,0.193,1.158,0.322,1.736,0.516c0.838,0.257,1.674,0.514,2.576,0.771
		c2.703,0.838,5.47,1.674,8.239,2.446c0.064,0,0.127,0.064,0.193,0.064c0.191,0.064,0.32,0.129,0.514,0.129
		c3.089,0.901,6.308,1.802,9.461,2.64c1.609,0.514,3.283,0.965,4.893,1.351c0.129,0,0.258,0.064,0.387,0.064
		c1.803,0.45,3.54,0.966,5.343,1.416c1.738,0.45,3.54,0.966,5.342,1.353c2.06,0.579,4.185,1.094,6.308,1.608
		c1.225,0.258,2.383,0.579,3.604,0.837c2.383,0.58,4.764,1.158,7.081,1.674c11.007,2.51,22.143,4.827,33.277,6.822
		c4.313,0.838,8.69,1.609,13.067,2.253c2.96,0.579,5.985,1.03,9.012,1.481c3.732,0.578,7.466,1.158,11.198,1.608
		c1.031,0.193,2.061,0.322,3.09,0.451c3.413,0.515,6.888,0.9,10.3,1.287c3.991,0.515,7.981,0.966,12.037,1.352
		c0.258,0.064,0.449,0.064,0.643,0.064h0.193c1.48,0.257,2.961,0.386,4.44,0.45c1.48,0.193,2.961,0.322,4.443,0.451
		c0.514,0,1.094,0.064,1.609,0.128c1.416,0.129,2.767,0.258,4.183,0.387l2.51,0.193c1.288,0.064,2.575,0.192,3.798,0.321
		c1.609,0.193,3.219,0.322,4.828,0.387h0.258c3.153,0.257,6.308,0.45,9.462,0.579c7.595,0.515,15.126,0.837,22.722,1.03h0.451
		c1.738,0.129,3.539,0.129,5.276,0.129c1.096,0.064,2.189,0.064,3.283,0.064c4.763,0.128,9.462,0.192,14.227,0.192
		c4.761,0,9.526-0.064,14.225-0.129c2.316-0.063,4.634-0.063,6.95-0.192c3.283-0.064,6.566-0.193,9.85-0.322
		c4.312-0.129,8.625-0.322,13.002-0.58c2.831-0.192,5.665-0.321,8.496-0.578c3.861-0.193,7.789-0.516,11.716-0.837
		c4.247-0.322,8.495-0.708,12.681-1.159c3.731-0.387,7.53-0.772,11.328-1.223c2.961-0.322,5.857-0.645,8.817-1.03
		c1.48-0.192,2.961-0.386,4.442-0.579c3.152-0.386,6.242-0.837,9.397-1.287c2.381-0.322,4.699-0.708,7.079-1.03
		c0.773-0.128,1.48-0.257,2.254-0.386c2.51-0.387,5.086-0.772,7.53-1.224c3.991-0.644,7.981-1.352,11.974-2.06
		c4.44-0.772,8.817-1.609,13.193-2.51c4.25-0.837,8.433-1.738,12.683-2.704c2.831-0.579,5.599-1.158,8.366-1.866
		c8.754-1.932,17.509-4.12,26.197-6.437c5.086-1.353,10.106-2.769,15.191-4.248c4.055-1.159,8.11-2.382,12.165-3.604
		c0.773-0.258,1.609-0.516,2.383-0.773c0.707-0.192,1.415-0.386,2.122-0.644c3.219-0.966,6.438-1.995,9.656-3.089
		c0.644-0.258,1.222-0.451,1.866-0.645c1.223-0.321,2.511-0.772,3.733-1.223c4.055-1.352,8.111-2.703,12.102-4.184
		c0.708-0.193,1.351-0.451,1.995-0.708c4.249-1.48,8.497-3.025,12.68-4.635c0.645-0.257,1.287-0.45,1.932-0.772
		c0.451-0.193,0.965-0.321,1.416-0.515c3.734-1.416,7.403-2.832,11.136-4.377c3.089-1.224,6.179-2.446,9.27-3.798
		c3.346-1.352,6.693-2.768,10.04-4.248c4.506-1.932,8.948-3.862,13.39-5.922c4.44-1.995,8.881-4.119,13.324-6.244
		c8.882-4.248,17.637-8.625,26.39-13.26c3.669-1.931,7.339-3.861,11.007-5.921c0.837-0.451,1.737-0.901,2.575-1.416
		c3.733-1.995,7.466-4.12,11.136-6.309c0.449-0.192,0.836-0.45,1.287-0.708c0.193-0.129,0.45-0.257,0.644-0.386
		c2.961-1.674,5.922-3.412,8.882-5.214c1.158-0.644,2.254-1.352,3.348-1.996c0.58-0.386,1.223-0.707,1.803-1.094
		c3.54-2.124,7.081-4.313,10.619-6.565c0.129-0.064,0.193-0.129,0.322-0.193c0.064,0,0.064-0.063,0.129-0.063
		c4.186-2.64,8.368-5.279,12.487-8.047c4.185-2.703,8.368-5.535,12.552-8.432h0.065c7.724-5.278,15.383-10.75,22.978-16.35
		c3.928-2.896,7.854-5.857,11.716-8.818c6.243-4.764,12.294-9.591,18.344-14.547c6.052-4.956,11.973-9.912,17.83-14.997
		c5.536-4.764,10.943-9.591,16.285-14.547c5.601-5.085,11.07-10.3,16.413-15.514c0.451-0.45,0.902-0.836,1.287-1.223
		c4.377-4.312,8.755-8.625,12.938-13.002c2.382-2.381,4.698-4.764,6.952-7.208c2.316-2.383,4.634-4.828,6.823-7.275
		c2.123-2.252,4.247-4.569,6.308-6.887c2.125-2.316,4.184-4.635,6.244-6.951c0.258-0.322,0.58-0.645,0.836-0.967
		c4.185-4.763,8.303-9.525,12.295-14.354c0.578-0.643,1.094-1.223,1.609-1.866c2.445-2.896,4.827-5.793,7.144-8.754
		c1.095-1.351,2.125-2.639,3.153-3.991c1.352-1.609,2.641-3.219,3.863-4.828c3.219-4.054,6.308-8.109,9.397-12.229
		c1.995-2.575,3.927-5.214,5.858-7.917c1.994-2.64,3.926-5.343,5.792-7.981c3.797-5.279,7.466-10.686,11.136-16.092
		c0.258-0.387,0.516-0.709,0.773-1.095c3.218-4.827,6.437-9.72,9.589-14.675c0.193-0.322,0.451-0.645,0.645-0.967
		c2.64-4.119,5.214-8.303,7.788-12.486c1.094-1.738,2.125-3.541,3.219-5.279c2.575-4.377,5.149-8.688,7.596-13.065
		c0.9-1.546,1.801-3.091,2.703-4.636c0.387-0.643,0.707-1.287,1.094-1.93c1.738-3.219,3.541-6.373,5.278-9.591
		c0.387-0.644,0.709-1.353,1.094-1.995c0.322-0.645,0.645-1.288,1.029-1.932c2.769-5.214,5.472-10.363,8.046-15.577
		c0.709-1.352,1.418-2.703,2.061-4.056c2.318-4.698,4.635-9.332,6.823-14.031c2.768-5.793,5.472-11.65,8.046-17.572
		c0.193-0.451,0.387-0.901,0.58-1.352c1.029-2.317,2.059-4.699,3.09-7.08c0.836-1.932,1.673-3.927,2.444-5.858
		c0.129-0.257,0.258-0.579,0.388-0.837c0.515-1.094,0.964-2.252,1.415-3.411c0.322-0.707,0.58-1.416,0.838-2.124
		c0.32-0.708,0.643-1.48,0.9-2.188c0.837-1.931,1.608-3.927,2.381-5.857c0.644-1.609,1.288-3.282,1.932-4.956
		c0.708-1.737,1.415-3.54,2.06-5.278c1.609-4.313,3.219-8.562,4.764-12.873c2.188-5.985,4.247-12.037,6.308-18.152
		c1.158-3.476,2.253-6.951,3.347-10.427c1.48-4.635,2.961-9.334,4.314-14.032c1.801-6.051,3.539-12.101,5.147-18.216
		c0.773-2.768,1.48-5.472,2.189-8.239c0.579-2.317,1.158-4.634,1.737-6.952c0.644-2.51,1.287-4.956,1.867-7.466
		c0.578-2.446,1.158-4.892,1.674-7.402c0.514-1.932,0.9-3.862,1.352-5.793c1.158-5.343,2.316-10.749,3.348-16.092
		c0.063-0.193,0.063-0.387,0.129-0.516c1.093-5.471,2.122-10.942,3.024-16.413c0.578-3.348,1.158-6.758,1.738-10.105
		c0.643-4.248,1.352-8.433,1.931-12.68c0.386-2.447,0.708-4.893,1.029-7.34c0.322-2.444,0.708-4.892,0.966-7.337v-0.064
		c0.386-2.703,0.708-5.472,0.966-8.175c0.643-5.536,1.287-11.135,1.801-16.736c0.066-0.836,0.129-1.736,0.193-2.638
		c0.516-5.278,0.967-10.621,1.287-15.898c0.195-2.833,0.387-5.665,0.58-8.497c0.129-2.382,0.258-4.699,0.322-7.016
		c0.064-0.516,0.129-1.03,0.129-1.545c0.258-5.213,0.451-10.428,0.578-15.642c0.066-0.9,0.066-1.867,0.066-2.832
		c0.191-6.308,0.256-12.616,0.256-18.924c0,0,0-0.064,0-0.129c0-3.604,0-7.274-0.064-10.878c0-0.579,0-1.159-0.063-1.738
		c0-2.188-0.066-4.377-0.129-6.564c-0.066-4.571-0.258-9.142-0.451-13.775c-0.129-3.219-0.258-6.438-0.451-9.655
		c0-0.321-0.064-0.708-0.064-1.029c-0.129-2.383-0.258-4.828-0.451-7.21c-0.129-2.768-0.385-5.535-0.578-8.238
		c-0.129-1.674-0.258-3.412-0.387-5.085c-0.387-4.441-0.773-8.819-1.223-13.26c-0.129-1.416-0.258-2.832-0.451-4.249
		c-0.516-5.277-1.158-10.491-1.803-15.77c-0.129-0.772-0.192-1.48-0.321-2.316c-0.386-3.09-0.772-6.115-1.223-9.205
		c-0.451-3.026-0.836-6.051-1.352-9.141c-0.9-5.856-1.803-11.715-2.896-17.508c-0.193-1.158-0.387-2.316-0.58-3.477
		c-0.771-4.312-1.608-8.625-2.509-12.938c-0.322-1.674-0.645-3.348-1.031-5.021c0-0.063,0-0.063,0-0.128
		c0-0.129-0.064-0.258-0.064-0.386c-0.193-0.773-0.322-1.545-0.514-2.318c-0.967-4.827-1.996-9.591-3.154-14.354
		c-0.064-0.516-0.193-1.094-0.322-1.609c-1.803-7.659-3.669-15.319-5.729-22.915c-0.32-1.352-0.707-2.703-1.029-4.055
		c-0.129-0.387-0.193-0.773-0.322-1.158c-0.193-0.709-0.387-1.416-0.578-2.124c-0.322-1.159-0.645-2.254-0.967-3.412
		c-0.063-0.193-0.063-0.322-0.129-0.516c-0.129-0.45-0.256-0.836-0.385-1.286c-0.58-2.253-1.224-4.441-1.931-6.631
		c-0.129-0.515-0.258-0.965-0.387-1.48c-1.094-3.668-2.189-7.337-3.348-10.941c-1.287-4.313-2.703-8.562-4.119-12.874
		c-0.516-1.673-1.095-3.347-1.673-4.956c-1.096-3.412-2.318-6.888-3.541-10.299c-0.58-1.674-1.223-3.412-1.802-5.085
		c-1.224-3.476-2.51-6.887-3.863-10.363c-1.287-3.54-2.639-7.145-4.119-10.685c-0.322-0.967-0.709-1.932-1.158-2.961
		c-0.322-0.966-0.773-1.931-1.159-2.897c-1.287-3.218-2.639-6.437-3.99-9.655c-0.838-2.059-1.738-4.183-2.64-6.243
		c0-0.129-0.063-0.258-0.129-0.386c0-0.064-0.063-0.064-0.063-0.129c-1.802-4.119-3.604-8.239-5.472-12.358
		c-2.188-4.828-4.441-9.72-6.759-14.548c-1.48-3.153-3.089-6.372-4.698-9.59c-1.029-2.253-2.189-4.506-3.348-6.76
		c-2.381-4.698-4.828-9.396-7.337-14.096c-2.188-4.184-4.441-8.304-6.759-12.422c-2.639-4.764-5.279-9.397-8.046-14.098
		c-1.996-3.475-4.056-6.887-6.18-10.362c-1.351-2.253-2.704-4.506-4.12-6.759c-1.932-3.154-3.926-6.309-5.921-9.398
		c-0.966-1.544-1.996-3.153-3.025-4.698c-2.188-3.411-4.44-6.888-6.759-10.235c-2.896-4.376-5.922-8.688-8.882-13.001
		c-6.501-9.205-13.196-18.28-20.083-27.292c-46.796-60.956-101.443-113.865-162.076-157.571
		c121.203,51.687,227.666,133.948,310.12,241.249C4155.165,2959.418,4204.663,3164.813,4180.01,3360.812z"/><path fill="#23327a" d="M2269.182 1458.115c-82.518 0-149.654 67.134-149.654 149.588 0 82.519 67.136 149.654 149.654 149.654 82.455 0 149.591-67.135 149.591-149.654C2418.773 1525.25 2351.637 1458.115 2269.182 1458.115zM2269.182 1682.434c-41.194 0-74.729-33.535-74.729-74.731 0-41.194 33.535-74.665 74.729-74.665 41.131 0 74.667 33.471 74.667 74.665C2343.849 1648.899 2310.313 1682.434 2269.182 1682.434zM2642.449 1458.115c-82.52 0-149.653 67.134-149.653 149.588 0 82.519 67.134 149.654 149.653 149.654 82.518 0 149.59-67.135 149.59-149.654C2792.039 1525.25 2724.967 1458.115 2642.449 1458.115zM2642.449 1682.434c-41.195 0-74.73-33.535-74.73-74.731 0-41.194 33.535-74.665 74.73-74.665s74.666 33.471 74.666 74.665C2717.115 1648.899 2683.645 1682.434 2642.449 1682.434zM3029.876 1458.115c-82.52 0-149.59 67.134-149.59 149.588 0 82.519 67.07 149.654 149.59 149.654 82.518 0 149.589-67.135 149.589-149.654C3179.465 1525.25 3112.394 1458.115 3029.876 1458.115zM3029.876 1682.434c-41.194 0-74.667-33.535-74.667-74.731 0-41.194 33.473-74.665 74.667-74.665s74.667 33.471 74.667 74.665C3104.543 1648.899 3071.07 1682.434 3029.876 1682.434z"/><path fill="#e9eff2" d="M3362.977,1053.308v1121.729c-248.587-25.618-507.086,39.907-720.464,203.786
		c-214.471,164.781-351.96,403.262-387.169,671.415c-17.895,136.523-8.11,272.403,27.485,401.267l-186.601,143.347
		c-11.973,9.139-21.757,20.146-29.352,32.184h-657.317c-3.434,0-6.244-2.811-6.244-6.244v-286.113h419.355
		c120.116,0,218.113-96.223,220.306-216.319c14.831-812.542,650.022-1052.915,964.183-1122.166
		c100.777-22.215,172.307-111.871,172.307-215.067v-734.06h177.269C3360.167,1047.065,3362.977,1049.875,3362.977,1053.308z"/><path fill="#23327a" d="M4038.016,3168.74c0-0.579,0-1.159-0.063-1.738c0-2.188-0.066-4.377-0.129-6.564
		c-0.066-4.571-0.258-9.142-0.451-13.775c-0.129-3.219-0.258-6.438-0.451-9.655c0-0.321-0.064-0.708-0.064-1.029
		c-0.129-2.383-0.258-4.828-0.451-7.21c-0.129-2.768-0.385-5.535-0.578-8.238c-0.129-1.674-0.258-3.412-0.387-5.085
		c-0.387-4.441-0.773-8.819-1.223-13.26c-0.129-1.416-0.258-2.832-0.451-4.249c-0.516-5.277-1.158-10.491-1.803-15.77
		c-0.129-0.772-0.192-1.48-0.321-2.316c-0.386-3.025-0.772-6.115-1.223-9.205c-0.451-3.026-0.836-6.051-1.352-9.141
		c-0.9-5.856-1.867-11.65-2.896-17.508c-0.193-1.158-0.387-2.316-0.58-3.477c-0.771-4.312-1.608-8.625-2.509-12.938
		c-0.322-1.674-0.645-3.348-1.031-5.021c0-0.063,0-0.063,0-0.128c0-0.129-0.064-0.258-0.064-0.386
		c-0.193-0.773-0.322-1.545-0.514-2.318c-1.031-4.827-2.061-9.526-3.154-14.354c-0.064-0.516-0.193-1.094-0.322-1.609
		c-1.803-7.659-3.669-15.319-5.729-22.915c-0.32-1.352-0.707-2.703-1.029-4.055c-0.129-0.387-0.193-0.773-0.322-1.158
		c-0.193-0.709-0.387-1.416-0.578-2.124c-0.322-1.159-0.645-2.254-0.967-3.412c-0.063-0.193-0.063-0.322-0.129-0.516
		c-0.129-0.45-0.256-0.836-0.385-1.286c-0.645-2.189-1.288-4.441-1.931-6.631c-0.129-0.515-0.258-0.965-0.387-1.48
		c-1.094-3.668-2.189-7.337-3.348-10.941c-1.287-4.313-2.703-8.562-4.119-12.874c-0.516-1.673-1.095-3.347-1.673-4.956
		c-1.096-3.412-2.318-6.888-3.541-10.299c-0.58-1.674-1.223-3.412-1.802-5.085c-1.224-3.476-2.51-6.887-3.863-10.363
		c-1.352-3.54-2.703-7.145-4.119-10.685c-0.322-0.967-0.709-1.932-1.158-2.961c-0.387-0.966-0.773-1.931-1.159-2.897
		c-1.287-3.218-2.639-6.437-3.99-9.655c-0.838-2.123-1.738-4.183-2.64-6.243c0-0.129-0.063-0.258-0.129-0.386
		c0-0.064-0.063-0.064-0.063-0.129c-1.802-4.119-3.604-8.239-5.472-12.358c-2.188-4.828-4.441-9.72-6.759-14.548
		c-1.48-3.153-3.089-6.372-4.698-9.59c-1.029-2.253-2.189-4.506-3.348-6.76c-2.381-4.698-4.828-9.396-7.337-14.096
		c-2.188-4.184-4.441-8.304-6.759-12.422c-2.639-4.764-5.279-9.397-8.046-14.098c-1.996-3.475-4.056-6.887-6.18-10.362
		c-1.351-2.253-2.704-4.506-4.12-6.759c-1.932-3.154-3.926-6.309-5.921-9.398c-0.966-1.608-1.996-3.153-3.025-4.698
		c-2.188-3.411-4.44-6.888-6.759-10.235c-2.896-4.376-5.922-8.688-8.882-13.001c-6.501-9.205-13.196-18.28-20.083-27.292
		c-46.796-60.956-101.443-113.865-162.076-157.571c-103.053-74.408-223.548-122.555-353.12-139.548
		c-47.761-6.243-95.394-8.11-142.444-5.6c-155.896,7.917-305.551,62.694-431.97,159.824c-8.433,6.501-16.734,13.131-24.845,20.019
		c-140.707,117.213-234.04,277.809-266.481,457.908c-2.188,12.359-4.119,24.782-5.792,37.334
		c-26.969,205.781,27.806,409.762,154.289,574.413c83.806,109.103,191.105,189.819,309.414,240.412
		c2.896,1.224,5.792,2.446,8.688,3.604c1.932,0.837,3.862,1.609,5.794,2.382c0.257,0.128,0.514,0.192,0.771,0.321
		c2.06,0.837,4.12,1.674,6.179,2.446c0.387,0.193,0.838,0.386,1.225,0.515c0.578,0.193,1.094,0.451,1.674,0.645
		c2.639,1.029,5.276,2.06,7.916,3.024c0.259,0.129,0.579,0.193,0.837,0.322c0.258,0.128,0.579,0.192,0.837,0.321
		c2.703,0.966,5.277,1.996,7.982,2.896c1.866,0.709,3.731,1.416,5.599,1.996c0.129,0.064,0.193,0.064,0.322,0.128
		c1.609,0.516,3.153,1.095,4.763,1.674c1.609,0.515,3.154,1.095,4.764,1.609c0.965,0.321,1.867,0.644,2.832,0.966
		c3.282,1.094,6.564,2.188,9.848,3.154c1.096,0.386,2.125,0.707,3.219,1.029c1.48,0.515,2.961,0.966,4.442,1.416
		c0.578,0.193,1.158,0.322,1.736,0.516c0.838,0.257,1.674,0.514,2.576,0.771c2.703,0.838,5.47,1.674,8.239,2.446
		c0.064,0,0.127,0.064,0.193,0.064c0.191,0.064,0.32,0.129,0.514,0.129c3.089,0.901,6.308,1.802,9.461,2.64
		c1.609,0.514,3.283,0.965,4.893,1.351c0.129,0,0.258,0.064,0.387,0.064c1.803,0.45,3.54,0.966,5.343,1.416
		c1.738,0.45,3.54,0.966,5.342,1.353c2.06,0.579,4.185,1.094,6.308,1.608c1.225,0.258,2.383,0.579,3.604,0.837
		c2.383,0.58,4.764,1.094,7.081,1.674c11.007,2.51,22.143,4.827,33.277,6.822c0.516,0.064,0.965,0.193,1.48,0.258
		c1.996,0.387,4.057,0.708,6.051,1.03c0.901,0.192,1.802,0.321,2.769,0.515c0.9,0.193,1.867,0.322,2.768,0.45
		c1.802,0.322,3.669,0.645,5.536,0.901c1.158,0.193,2.316,0.387,3.476,0.58c1.158,0.192,2.316,0.321,3.476,0.45
		c0.644,0.128,1.353,0.192,1.995,0.322c1.931,0.321,3.798,0.579,5.728,0.836c1.031,0.193,2.061,0.322,3.09,0.451
		c2.061,0.257,4.12,0.515,6.181,0.772c1.352,0.192,2.768,0.386,4.119,0.515c3.991,0.515,7.981,0.966,12.037,1.352
		c0.258,0.064,0.449,0.064,0.643,0.064h0.193c1.545,0.128,2.961,0.321,4.44,0.45c1.48,0.193,2.961,0.322,4.443,0.451
		c0.514,0,1.094,0.064,1.609,0.128c1.416,0.129,2.767,0.258,4.183,0.387l2.51,0.193c1.288,0.064,2.575,0.192,3.798,0.321
		c1.287,0.129,2.576,0.193,3.863,0.258c0.322,0.064,0.643,0.129,0.965,0.129h0.258c3.153,0.257,6.308,0.45,9.462,0.579
		c0.772,0.063,1.479,0.129,2.253,0.129c0.449,0.063,0.9,0.063,1.352,0.063c0.707,0.064,1.48,0.129,2.188,0.129
		c0.322,0.064,0.645,0.064,0.967,0.064c0.451,0,0.9,0.064,1.352,0.064c4.892,0.258,9.719,0.451,14.611,0.58h0.451
		c1.801,0.064,3.476,0.129,5.276,0.129c1.096,0.064,2.189,0.064,3.283,0.064c4.763,0.128,9.462,0.192,14.227,0.192
		c4.761,0,9.526-0.064,14.225-0.129c2.316-0.063,4.634-0.063,6.95-0.192c3.283-0.064,6.566-0.193,9.85-0.322
		c4.312-0.129,8.625-0.322,13.002-0.58c2.831-0.192,5.665-0.321,8.496-0.578c3.861-0.193,7.789-0.516,11.716-0.837
		c4.247-0.322,8.495-0.708,12.681-1.159c3.731-0.387,7.53-0.772,11.328-1.223c2.961-0.322,5.857-0.645,8.817-1.03
		c1.48-0.192,2.961-0.386,4.442-0.579c3.152-0.386,6.242-0.837,9.397-1.287c2.381-0.322,4.699-0.708,7.079-1.03
		c0.773-0.128,1.48-0.257,2.254-0.386c2.51-0.387,5.086-0.772,7.53-1.224c3.991-0.644,7.981-1.352,11.974-2.06
		c4.44-0.772,8.817-1.609,13.193-2.51c4.25-0.837,8.433-1.738,12.683-2.704c2.767-0.579,5.599-1.223,8.366-1.866
		c8.754-1.932,17.509-4.12,26.197-6.437c5.086-1.353,10.106-2.769,15.191-4.248c4.055-1.159,8.11-2.382,12.165-3.604
		c0.773-0.258,1.609-0.516,2.383-0.773c0.707-0.192,1.415-0.386,2.122-0.644c3.219-0.966,6.438-1.995,9.656-3.089
		c0.644-0.258,1.222-0.451,1.866-0.645c1.223-0.321,2.511-0.772,3.733-1.223c4.055-1.352,8.111-2.703,12.102-4.184
		c0.708-0.193,1.351-0.451,1.995-0.708c4.249-1.48,8.497-3.025,12.68-4.635c0.645-0.257,1.287-0.45,1.932-0.772
		c0.451-0.193,0.965-0.321,1.416-0.515c3.734-1.416,7.403-2.832,11.136-4.377c3.089-1.224,6.179-2.446,9.27-3.798
		c3.346-1.352,6.693-2.768,10.04-4.248c4.506-1.932,8.948-3.926,13.39-5.922c4.44-1.995,8.881-4.119,13.324-6.244
		c8.882-4.248,17.637-8.625,26.39-13.26c3.669-1.931,7.339-3.926,11.007-5.921c0.837-0.451,1.737-0.901,2.575-1.416
		c3.733-2.06,7.466-4.185,11.136-6.309c0.449-0.192,0.836-0.45,1.287-0.708c0.193-0.129,0.45-0.257,0.644-0.386
		c2.961-1.738,5.922-3.476,8.882-5.214c1.158-0.644,2.254-1.352,3.348-1.996c0.58-0.386,1.223-0.707,1.803-1.094
		c3.54-2.188,7.081-4.377,10.619-6.565c0.129-0.064,0.193-0.129,0.322-0.193c0.064,0,0.064-0.063,0.129-0.063
		c4.186-2.64,8.368-5.343,12.487-8.047c4.249-2.768,8.368-5.6,12.552-8.432h0.065c7.724-5.278,15.383-10.75,22.978-16.35
		c3.928-2.896,7.854-5.857,11.716-8.818c6.243-4.764,12.294-9.591,18.344-14.547c6.052-4.956,11.973-9.912,17.83-14.997
		c5.536-4.764,10.943-9.591,16.285-14.547c5.601-5.085,11.07-10.3,16.413-15.514c0.451-0.45,0.902-0.836,1.287-1.223
		c4.377-4.312,8.69-8.625,12.938-13.002c2.317-2.381,4.634-4.764,6.952-7.208c2.316-2.383,4.57-4.828,6.823-7.275
		c2.123-2.252,4.247-4.569,6.308-6.887c2.125-2.316,4.184-4.635,6.244-6.951c0.258-0.322,0.58-0.645,0.836-0.967
		c4.185-4.763,8.303-9.525,12.295-14.354c0.578-0.643,1.094-1.223,1.609-1.866c2.445-2.896,4.827-5.793,7.144-8.754
		c1.095-1.351,2.125-2.639,3.153-3.991c1.352-1.609,2.641-3.219,3.863-4.828c3.219-4.054,6.308-8.109,9.397-12.229
		c1.931-2.639,3.927-5.278,5.858-7.917c1.994-2.64,3.926-5.343,5.792-7.981c3.797-5.279,7.466-10.686,11.136-16.092
		c0.258-0.387,0.516-0.709,0.773-1.095c3.218-4.827,6.437-9.72,9.589-14.675c0.193-0.322,0.451-0.645,0.645-0.967
		c2.64-4.119,5.214-8.303,7.788-12.486c1.094-1.738,2.125-3.541,3.219-5.279c2.575-4.377,5.149-8.688,7.596-13.065
		c0.9-1.546,1.801-3.091,2.703-4.636c0.387-0.643,0.707-1.287,1.094-1.93c1.738-3.219,3.541-6.373,5.278-9.591
		c0.387-0.644,0.709-1.353,1.094-1.995c0.322-0.645,0.645-1.288,1.029-1.932c2.705-5.149,5.407-10.363,8.046-15.577
		c0.709-1.352,1.418-2.703,2.061-4.056c2.318-4.634,4.571-9.332,6.823-14.031c2.768-5.793,5.472-11.65,8.046-17.572
		c0.193-0.451,0.387-0.901,0.58-1.352c1.029-2.317,2.059-4.699,3.09-7.08c0.836-1.932,1.673-3.927,2.444-5.858
		c0.129-0.257,0.258-0.579,0.388-0.837c0.515-1.094,0.964-2.252,1.415-3.411c0.322-0.707,0.58-1.416,0.838-2.124
		c0.32-0.708,0.643-1.48,0.9-2.188c0.837-1.931,1.608-3.927,2.381-5.857c0.644-1.609,1.288-3.282,1.932-4.956
		c0.708-1.737,1.415-3.54,2.06-5.278c1.609-4.248,3.219-8.562,4.764-12.873c2.188-5.985,4.247-12.037,6.308-18.152
		c1.158-3.476,2.253-6.951,3.347-10.427c1.48-4.635,2.896-9.334,4.314-14.032c1.801-6.051,3.539-12.101,5.147-18.216
		c0.773-2.768,1.48-5.472,2.189-8.239c0.579-2.317,1.158-4.634,1.737-6.952c0.644-2.445,1.223-4.956,1.867-7.466
		c0.578-2.446,1.158-4.892,1.674-7.402c0.514-1.932,0.9-3.862,1.352-5.793c1.158-5.343,2.316-10.749,3.348-16.092
		c0.063-0.193,0.063-0.387,0.129-0.516c1.093-5.471,2.122-10.942,3.024-16.413c0.578-3.348,1.158-6.758,1.738-10.105
		c0.643-4.248,1.352-8.433,1.931-12.68c0.321-2.447,0.708-4.893,1.029-7.34c0.322-2.444,0.708-4.892,0.966-7.337v-0.064
		c0.386-2.703,0.708-5.472,0.966-8.175c0.643-5.536,1.287-11.135,1.801-16.736c0.066-0.836,0.129-1.736,0.193-2.638
		c0.516-5.278,0.967-10.621,1.287-15.898c0.195-2.833,0.387-5.665,0.58-8.497c0.129-2.382,0.258-4.699,0.322-7.016
		c0.064-0.516,0.129-1.03,0.129-1.545c0.258-5.213,0.451-10.428,0.578-15.642c0.066-0.9,0.066-1.867,0.066-2.832
		c0.191-6.308,0.256-12.616,0.256-18.924c0,0,0-0.064,0-0.129C4038.08,3176.014,4038.08,3172.344,4038.016,3168.74z
		 M3957.493,3271.728c-17.896,136.974-74.408,262.747-162.335,365.155c-31.411,36.626-66.877,70.29-106.077,100.413
		c-27.099,20.79-55.228,39.329-84.193,55.55c-147.207,82.775-315.462,107.171-474.064,77.24
		c-122.169-23.043-238.546-78.336-335.097-164.071c-24.329-21.499-47.373-44.93-68.937-70.29
		c-7.659-8.947-15.061-18.088-22.271-27.484c-114.252-148.753-163.75-333.101-139.42-519.059
		c24.395-185.957,119.723-351.316,268.477-465.568c63.658-48.854,133.046-85.094,205.201-109.167
		c72.158-24.009,147.08-35.853,221.745-35.853c37.978,0,75.827,3.09,113.223,9.141c170.444,27.613,331.17,117.6,444.393,265
		c17.186,22.335,32.827,45.508,47.053,69.323C3945.585,2956.907,3978.218,3113.706,3957.493,3271.728z"/><path fill="#fff" d="M3865.19,2822.058c-101.314-89.792-224.45-146.113-353.056-166.968
		c-37.396-6.051-75.244-9.141-113.223-9.141c-74.665,0-149.588,11.844-221.744,35.852c-65.848,21.95-129.313,54.069-188.274,96.616
		c-11.392-4.056-23.43-6.308-35.916-6.694c-31.412-0.9-61.149,10.557-83.807,31.99l-10.557,9.977
		c-22.657,21.5-35.594,50.594-36.496,81.939c-0.387,14.805,1.932,29.224,6.759,42.741
		c-66.814,92.882-110.068,201.469-125.387,318.167c-20.663,157.957,11.906,314.691,92.236,449.478
		c-24.329-21.499-47.373-44.93-68.937-70.29c-7.659-8.947-15.061-18.088-22.271-27.484
		c-114.252-148.753-163.75-333.101-139.42-519.059c24.395-185.957,119.723-351.316,268.477-465.568
		c63.658-48.854,133.046-85.094,205.201-109.167c72.158-24.009,147.08-35.853,221.745-35.853c37.978,0,75.827,3.09,113.223,9.141
		c170.444,27.613,331.17,117.6,444.393,265C3835.323,2775.069,3850.965,2798.242,3865.19,2822.058z"/><path fill="#ff7373" d="M3957.493,3271.728c-17.896,136.974-74.408,262.747-162.335,365.155
		c-4.441-7.66-9.784-14.868-16.156-21.563l-110.067-116.248c-4.763-18.602-14.225-36.238-28.322-51.107l-68.293-72.155
		l-149.011-157.313l243.437-230.499c13.39-12.681,23.173-27.808,29.224-44.028c15.125-40.615,7.079-88.183-24.653-121.718
		l-9.978-10.556c-21.498-22.658-50.592-35.596-81.939-36.433c-31.475-0.965-61.148,10.492-83.807,31.926l-243.436,230.5
		l-217.304-229.47c-12.938-13.646-28.644-23.816-45.959-29.802c58.961-42.547,122.427-74.666,188.274-96.616
		c72.156-24.008,147.079-35.852,221.744-35.852c37.979,0,75.827,3.09,113.223,9.141c128.605,20.854,251.741,77.176,353.056,166.968
		C3945.585,2956.907,3978.218,3113.706,3957.493,3271.728z"/><path fill="#ff7373" d="M3795.158,3636.883c-31.411,36.626-66.877,70.29-106.077,100.413
		c-27.099,20.79-55.228,39.329-84.193,55.55c-147.207,82.775-315.462,107.171-474.064,77.24
		c-122.169-23.043-238.546-78.336-335.097-164.071c-80.33-134.786-112.899-291.521-92.236-449.478
		c15.318-116.698,58.572-225.285,125.387-318.167c5.342,15.125,13.902,29.029,25.231,41.001l110.134,116.313l107.17,113.222
		l-10.555,9.977l-205.011,194.068c-46.924,44.413-48.919,118.757-4.506,165.745l9.978,10.491
		c27.678,29.159,66.877,41.003,103.824,35.081c22.528-3.604,44.156-13.775,61.922-30.574l215.501-204.045l217.304,229.47
		c21.434,22.657,50.528,35.659,81.939,36.496c1.095,0,2.188,0.064,3.283,0.064c30.123,0,58.573-11.329,80.459-32.055l10.556-9.978
		c32.055-30.316,43.19-74.602,32.828-114.574l110.067,116.248C3785.374,3622.015,3790.717,3629.223,3795.158,3636.883z"/><path fill="#23327a" d="M3695.969,2943.969c15.125-40.615,7.079-88.183-24.653-121.718l-9.978-10.556
		c-21.498-22.658-50.592-35.596-81.939-36.433c-31.475-0.965-61.148,10.492-83.807,31.926l-243.436,230.5l-217.304-229.47
		c-12.938-13.646-28.644-23.816-45.959-29.802c-11.392-4.056-23.43-6.308-35.916-6.694c-31.412-0.9-61.149,10.557-83.807,31.99
		l-10.557,9.977c-22.657,21.5-35.594,50.594-36.496,81.939c-0.387,14.805,1.932,29.224,6.759,42.741
		c5.342,15.125,13.902,29.029,25.231,41.001l110.134,116.313l107.17,113.222l-10.555,9.977l-205.011,194.068
		c-46.924,44.413-48.919,118.757-4.506,165.745l9.978,10.491c27.678,29.159,66.877,41.003,103.824,35.081
		c22.528-3.604,44.156-13.775,61.922-30.574l215.501-204.045l217.304,229.47c21.434,22.657,50.528,35.659,81.939,36.496
		c1.095,0,2.188,0.064,3.283,0.064c30.123,0,58.573-11.329,80.459-32.055l10.556-9.978c32.055-30.316,43.19-74.602,32.828-114.574
		c-4.763-18.602-14.225-36.238-28.322-51.107l-68.293-72.155l-149.011-157.313l243.437-230.499
		C3680.135,2975.316,3689.918,2960.189,3695.969,2943.969z M3586.223,3499.459c16.026,16.929,15.319,43.771-1.609,59.798
		l-10.557,9.978c-8.174,7.723-18.925,11.713-30.252,11.456c-11.33-0.257-21.821-4.956-29.545-13.065l-243.051-256.698
		c-6.823-7.208-16.221-11.393-26.197-11.649c-0.323-0.064-0.644-0.064-1.03-0.064c-9.526,0-18.795,3.668-25.747,10.299
		l-37.784,35.788l-204.944,194.002c-16.93,16.028-43.705,15.32-59.797-1.608l-9.978-10.556
		c-16.027-16.93-15.255-43.771,1.673-59.798l204.946-194.003l37.783-35.788c14.998-14.226,15.643-37.978,1.415-52.974
		l-172.375-182.031l-70.676-74.667c-7.723-8.109-11.777-18.859-11.455-30.252c0.32-11.328,4.954-21.82,13.064-29.545l10.558-9.977
		c8.175-7.66,18.795-11.779,30.252-11.457c11.329,0.321,21.82,4.956,29.546,13.131l78.527,82.904l164.521,173.728
		c6.823,7.209,16.287,11.458,26.198,11.716c9.977,0.386,19.567-3.412,26.777-10.235l16.605-15.77l254.06-240.54
		c8.109-7.66,18.859-11.715,30.188-11.458c11.394,0.321,21.885,4.956,29.544,13.13l9.978,10.493
		c16.092,16.992,15.319,43.771-1.609,59.798l-253.993,240.539l-16.672,15.771c-7.208,6.823-11.394,16.22-11.651,26.197
		c-0.256,9.913,3.414,19.503,10.235,26.777L3586.223,3499.459z"/><path fill="#fff" d="M3344.587,3189.853c-7.208,6.823-11.394,16.22-11.651,26.197
		c-0.256,9.913,3.414,19.503,10.235,26.777l243.052,256.632c16.026,16.929,15.319,43.771-1.609,59.798l-10.557,9.978
		c-8.174,7.723-18.925,11.713-30.252,11.456c-11.33-0.257-21.821-4.956-29.545-13.065l-243.051-256.698
		c-6.823-7.208-16.221-11.393-26.197-11.649c-0.323-0.064-0.644-0.064-1.03-0.064c-9.526,0-18.795,3.668-25.747,10.299
		l-37.784,35.788l-204.944,194.002c-16.93,16.028-43.705,15.32-59.797-1.608l-9.978-10.556
		c-16.027-16.93-15.255-43.771,1.673-59.798l204.946-194.003l37.783-35.788c14.998-14.226,15.643-37.978,1.415-52.974
		l-172.375-182.031l-70.676-74.667c-7.723-8.109-11.777-18.859-11.455-30.252c0.32-11.328,4.954-21.82,13.064-29.545l10.558-9.977
		c8.175-7.66,18.795-11.779,30.252-11.457c11.329,0.321,21.82,4.956,29.546,13.131l78.527,82.904l164.521,173.728
		c6.823,7.209,16.287,11.458,26.198,11.716c9.977,0.386,19.567-3.412,26.777-10.235l16.605-15.77l254.06-240.54
		c8.109-7.66,18.859-11.715,30.188-11.458c11.394,0.321,21.885,4.956,29.544,13.13l9.978,10.493
		c16.092,16.992,15.319,43.771-1.609,59.798l-253.993,240.539L3344.587,3189.853z"/></svg>